<mxfile host="Electron" modified="2023-11-28T18:29:58.834Z" agent="Mozilla/5.0 (Windows NT 10.0; Win64; x64) AppleWebKit/537.36 (KHTML, like Gecko) draw.io/21.8.2 Chrome/114.0.5735.289 Electron/25.8.1 Safari/537.36" etag="1NY9HUfSDxWuHGmcTegR" version="21.8.2" type="device">
  <diagram name="Страница — 1" id="jsn5pezAf9I7rj186tjx">
    <mxGraphModel dx="2261" dy="854" grid="1" gridSize="10" guides="1" tooltips="1" connect="1" arrows="1" fold="1" page="1" pageScale="1" pageWidth="827" pageHeight="1169" math="0" shadow="0">
      <root>
        <mxCell id="0" />
        <mxCell id="1" parent="0" />
        <mxCell id="QI-KwDmmeTw7_n04OuO5-27" value="" style="edgeStyle=none;shape=connector;rounded=0;orthogonalLoop=1;jettySize=auto;html=1;labelBackgroundColor=default;strokeColor=#0A1F32;strokeWidth=2;align=center;verticalAlign=middle;fontFamily=Helvetica;fontSize=11;fontColor=default;endArrow=classic;" edge="1" parent="1" source="TFGOoUDNi3Y0NTSB-CI6-12">
          <mxGeometry relative="1" as="geometry">
            <mxPoint x="560" y="1108.8172043010754" as="targetPoint" />
          </mxGeometry>
        </mxCell>
        <mxCell id="TFGOoUDNi3Y0NTSB-CI6-12" value="&lt;font style=&quot;font-size: 19px;&quot;&gt;&lt;b style=&quot;font-size: 19px;&quot;&gt;NEAR Use Case&lt;/b&gt;&lt;/font&gt;" style="shape=umlFrame;whiteSpace=wrap;html=1;pointerEvents=0;width=235;height=40;labelBackgroundColor=none;fillColor=none;swimlaneFillColor=#D2D2D2;strokeColor=#FF4C2B;strokeWidth=3;fontColor=#18141D;fontSize=19;" parent="1" vertex="1">
          <mxGeometry x="-408" y="30" width="850" height="900" as="geometry" />
        </mxCell>
        <mxCell id="TFGOoUDNi3Y0NTSB-CI6-21" value="&lt;font size=&quot;1&quot; color=&quot;#0a1f32&quot;&gt;&lt;b style=&quot;font-size: 14px;&quot;&gt;Создаёт шаблон уведомления для рассылки&lt;/b&gt;&lt;/font&gt;" style="ellipse;whiteSpace=wrap;html=1;fillColor=#D2D2D2;strokeColor=#0A1F32;strokeWidth=2;" parent="1" vertex="1">
          <mxGeometry x="60" y="126" width="170" height="70" as="geometry" />
        </mxCell>
        <mxCell id="TFGOoUDNi3Y0NTSB-CI6-29" value="" style="endArrow=open;endFill=1;endSize=12;html=1;rounded=0;entryX=0;entryY=0.5;entryDx=0;entryDy=0;strokeWidth=2;strokeColor=#0A1F32;" parent="1" target="TFGOoUDNi3Y0NTSB-CI6-21" edge="1">
          <mxGeometry width="160" relative="1" as="geometry">
            <mxPoint x="-40" y="210" as="sourcePoint" />
            <mxPoint x="-80" y="320" as="targetPoint" />
          </mxGeometry>
        </mxCell>
        <mxCell id="TFGOoUDNi3Y0NTSB-CI6-30" value="" style="endArrow=open;endFill=1;endSize=12;html=1;rounded=0;entryX=0;entryY=0.5;entryDx=0;entryDy=0;strokeWidth=2;strokeColor=#0A1F32;" parent="1" target="QI-KwDmmeTw7_n04OuO5-4" edge="1">
          <mxGeometry width="160" relative="1" as="geometry">
            <mxPoint x="-40" y="220" as="sourcePoint" />
            <mxPoint x="69.99999999999682" y="284.9999999999999" as="targetPoint" />
          </mxGeometry>
        </mxCell>
        <mxCell id="QI-KwDmmeTw7_n04OuO5-29" value="" style="edgeStyle=none;shape=connector;rounded=0;orthogonalLoop=1;jettySize=auto;html=1;labelBackgroundColor=default;strokeColor=#0A1F32;strokeWidth=2;align=center;verticalAlign=middle;fontFamily=Helvetica;fontSize=11;fontColor=default;endArrow=classic;" edge="1" parent="1">
          <mxGeometry relative="1" as="geometry">
            <mxPoint x="-580" y="1400" as="sourcePoint" />
            <mxPoint x="-517.5000000000123" y="1400" as="targetPoint" />
          </mxGeometry>
        </mxCell>
        <mxCell id="QI-KwDmmeTw7_n04OuO5-14" style="rounded=0;orthogonalLoop=1;jettySize=auto;html=1;entryX=0;entryY=0;entryDx=0;entryDy=0;strokeWidth=2;strokeColor=#0A1F32;" edge="1" parent="1" target="QI-KwDmmeTw7_n04OuO5-11">
          <mxGeometry relative="1" as="geometry">
            <mxPoint x="-30" y="240" as="sourcePoint" />
          </mxGeometry>
        </mxCell>
        <mxCell id="QI-KwDmmeTw7_n04OuO5-18" style="edgeStyle=none;shape=connector;rounded=0;orthogonalLoop=1;jettySize=auto;html=1;entryX=1;entryY=0.5;entryDx=0;entryDy=0;labelBackgroundColor=default;strokeColor=#0A1F32;strokeWidth=2;align=center;verticalAlign=middle;fontFamily=Helvetica;fontSize=11;fontColor=default;endArrow=classic;" edge="1" parent="1" target="QI-KwDmmeTw7_n04OuO5-15">
          <mxGeometry relative="1" as="geometry">
            <mxPoint x="-70" y="210" as="sourcePoint" />
          </mxGeometry>
        </mxCell>
        <mxCell id="QI-KwDmmeTw7_n04OuO5-19" style="edgeStyle=none;shape=connector;rounded=0;orthogonalLoop=1;jettySize=auto;html=1;entryX=1;entryY=0.5;entryDx=0;entryDy=0;labelBackgroundColor=default;strokeColor=#0A1F32;strokeWidth=2;align=center;verticalAlign=middle;fontFamily=Helvetica;fontSize=11;fontColor=default;endArrow=classic;" edge="1" parent="1" target="QI-KwDmmeTw7_n04OuO5-16">
          <mxGeometry relative="1" as="geometry">
            <mxPoint x="-70" y="230" as="sourcePoint" />
          </mxGeometry>
        </mxCell>
        <mxCell id="QI-KwDmmeTw7_n04OuO5-20" style="edgeStyle=none;shape=connector;rounded=0;orthogonalLoop=1;jettySize=auto;html=1;entryX=0.5;entryY=0;entryDx=0;entryDy=0;labelBackgroundColor=default;strokeColor=#0A1F32;strokeWidth=2;align=center;verticalAlign=middle;fontFamily=Helvetica;fontSize=11;fontColor=default;endArrow=classic;" edge="1" parent="1" target="QI-KwDmmeTw7_n04OuO5-17">
          <mxGeometry relative="1" as="geometry">
            <mxPoint x="-80" y="320" as="sourcePoint" />
          </mxGeometry>
        </mxCell>
        <mxCell id="TFGOoUDNi3Y0NTSB-CI6-1" value="&lt;font color=&quot;#0a1f32&quot;&gt;&lt;span style=&quot;font-size: 15px;&quot;&gt;&lt;b&gt;Пользователь&lt;/b&gt;&lt;/span&gt;&lt;/font&gt;" style="shape=umlActor;verticalLabelPosition=bottom;verticalAlign=top;html=1;fillColor=#344756;strokeColor=#344756;strokeWidth=3;" parent="1" vertex="1">
          <mxGeometry x="-85" y="140" width="70" height="150" as="geometry" />
        </mxCell>
        <mxCell id="QI-KwDmmeTw7_n04OuO5-4" value="&lt;font size=&quot;1&quot; color=&quot;#0a1f32&quot;&gt;&lt;b style=&quot;font-size: 14px;&quot;&gt;Редактирует созданный шаблон&lt;/b&gt;&lt;/font&gt;" style="ellipse;whiteSpace=wrap;html=1;fillColor=#D2D2D2;strokeColor=#0A1F32;strokeWidth=2;" vertex="1" parent="1">
          <mxGeometry x="50" y="230" width="160" height="70" as="geometry" />
        </mxCell>
        <mxCell id="QI-KwDmmeTw7_n04OuO5-7" value="&lt;font color=&quot;#344756&quot;&gt;Шаблон для моментальной рассылки&lt;/font&gt;" style="shape=note;size=20;whiteSpace=wrap;html=1;fillColor=#D2D2D2;strokeColor=#344756;strokeWidth=3;" vertex="1" parent="1">
          <mxGeometry x="333" y="80" width="90" height="90" as="geometry" />
        </mxCell>
        <mxCell id="QI-KwDmmeTw7_n04OuO5-8" value="&lt;font color=&quot;#344756&quot;&gt;Шаблон для отложенной рассылки по времени&lt;/font&gt;" style="shape=note;size=20;whiteSpace=wrap;html=1;fillColor=#D2D2D2;strokeColor=#344756;strokeWidth=3;" vertex="1" parent="1">
          <mxGeometry x="338" y="190" width="80" height="100" as="geometry" />
        </mxCell>
        <mxCell id="QI-KwDmmeTw7_n04OuO5-9" style="rounded=0;orthogonalLoop=1;jettySize=auto;html=1;entryX=0;entryY=0.5;entryDx=0;entryDy=0;entryPerimeter=0;dashed=1;strokeWidth=2;strokeColor=#0A1F32;exitX=1;exitY=0.5;exitDx=0;exitDy=0;" edge="1" parent="1" source="TFGOoUDNi3Y0NTSB-CI6-21" target="QI-KwDmmeTw7_n04OuO5-7">
          <mxGeometry relative="1" as="geometry" />
        </mxCell>
        <mxCell id="QI-KwDmmeTw7_n04OuO5-10" style="rounded=0;orthogonalLoop=1;jettySize=auto;html=1;entryX=0;entryY=0.5;entryDx=0;entryDy=0;entryPerimeter=0;dashed=1;strokeWidth=2;strokeColor=#0A1F32;exitX=1;exitY=0.5;exitDx=0;exitDy=0;" edge="1" parent="1" source="TFGOoUDNi3Y0NTSB-CI6-21" target="QI-KwDmmeTw7_n04OuO5-8">
          <mxGeometry relative="1" as="geometry" />
        </mxCell>
        <mxCell id="QI-KwDmmeTw7_n04OuO5-11" value="&lt;font color=&quot;#0a1f32&quot;&gt;&lt;span style=&quot;font-size: 14px;&quot;&gt;&lt;b&gt;Делает рассылку повторно используя старый шаблон&lt;/b&gt;&lt;/span&gt;&lt;/font&gt;" style="ellipse;whiteSpace=wrap;html=1;fillColor=#D2D2D2;strokeColor=#0A1F32;strokeWidth=2;" vertex="1" parent="1">
          <mxGeometry x="27" y="340" width="180" height="80" as="geometry" />
        </mxCell>
        <mxCell id="QI-KwDmmeTw7_n04OuO5-15" value="&lt;font color=&quot;#0a1f32&quot;&gt;&lt;span style=&quot;font-size: 14px;&quot;&gt;&lt;b&gt;Добавляет в друзья других пользователей&lt;/b&gt;&lt;/span&gt;&lt;/font&gt;" style="ellipse;whiteSpace=wrap;html=1;fillColor=#D2D2D2;strokeColor=#0A1F32;strokeWidth=2;" vertex="1" parent="1">
          <mxGeometry x="-380" y="130" width="220" height="100" as="geometry" />
        </mxCell>
        <mxCell id="QI-KwDmmeTw7_n04OuO5-16" value="&lt;font color=&quot;#0a1f32&quot;&gt;&lt;span style=&quot;font-size: 14px;&quot;&gt;&lt;b&gt;Подписывается на сообщеества, для получения рассылок уведомлений&lt;/b&gt;&lt;/span&gt;&lt;/font&gt;" style="ellipse;whiteSpace=wrap;html=1;fillColor=#D2D2D2;strokeColor=#0A1F32;strokeWidth=2;" vertex="1" parent="1">
          <mxGeometry x="-380" y="250" width="220" height="100" as="geometry" />
        </mxCell>
        <mxCell id="QI-KwDmmeTw7_n04OuO5-17" value="&lt;font color=&quot;#0a1f32&quot;&gt;&lt;span style=&quot;font-size: 14px;&quot;&gt;&lt;b&gt;Создаёт группы людей для более удобной и быстрой рассылки&lt;/b&gt;&lt;/span&gt;&lt;/font&gt;" style="ellipse;whiteSpace=wrap;html=1;fillColor=#D2D2D2;strokeColor=#0A1F32;strokeWidth=2;" vertex="1" parent="1">
          <mxGeometry x="-220" y="400" width="220" height="100" as="geometry" />
        </mxCell>
        <mxCell id="QI-KwDmmeTw7_n04OuO5-21" value="Соседи" style="shape=folder;fontStyle=1;spacingTop=10;tabWidth=40;tabHeight=14;tabPosition=left;html=1;whiteSpace=wrap;fontFamily=Helvetica;fontSize=11;fontColor=#344756;strokeWidth=2;strokeColor=#344756;fillColor=none;" vertex="1" parent="1">
          <mxGeometry x="-366" y="367" width="70" height="50" as="geometry" />
        </mxCell>
        <mxCell id="QI-KwDmmeTw7_n04OuO5-22" value="Семья" style="shape=folder;fontStyle=1;spacingTop=10;tabWidth=40;tabHeight=14;tabPosition=left;html=1;whiteSpace=wrap;fontFamily=Helvetica;fontSize=11;fontColor=#344756;strokeWidth=2;strokeColor=#344756;fillColor=none;" vertex="1" parent="1">
          <mxGeometry x="-378" y="455" width="70" height="50" as="geometry" />
        </mxCell>
        <mxCell id="QI-KwDmmeTw7_n04OuO5-23" value="Коллеги" style="shape=folder;fontStyle=1;spacingTop=10;tabWidth=40;tabHeight=14;tabPosition=left;html=1;whiteSpace=wrap;fontFamily=Helvetica;fontSize=11;fontColor=#344756;fillColor=none;strokeWidth=2;strokeColor=#344756;" vertex="1" parent="1">
          <mxGeometry x="-311" y="535" width="70" height="50" as="geometry" />
        </mxCell>
        <mxCell id="QI-KwDmmeTw7_n04OuO5-24" style="edgeStyle=none;shape=connector;rounded=0;orthogonalLoop=1;jettySize=auto;html=1;entryX=0;entryY=0;entryDx=70;entryDy=32;entryPerimeter=0;labelBackgroundColor=default;strokeColor=#0A1F32;strokeWidth=2;align=center;verticalAlign=middle;fontFamily=Helvetica;fontSize=11;fontColor=default;endArrow=classic;dashed=1;" edge="1" parent="1" source="QI-KwDmmeTw7_n04OuO5-17" target="QI-KwDmmeTw7_n04OuO5-21">
          <mxGeometry relative="1" as="geometry" />
        </mxCell>
        <mxCell id="QI-KwDmmeTw7_n04OuO5-25" style="edgeStyle=none;shape=connector;rounded=0;orthogonalLoop=1;jettySize=auto;html=1;entryX=0;entryY=0;entryDx=70;entryDy=32;entryPerimeter=0;labelBackgroundColor=default;strokeColor=#0A1F32;strokeWidth=2;align=center;verticalAlign=middle;fontFamily=Helvetica;fontSize=11;fontColor=default;endArrow=classic;dashed=1;" edge="1" parent="1" source="QI-KwDmmeTw7_n04OuO5-17" target="QI-KwDmmeTw7_n04OuO5-22">
          <mxGeometry relative="1" as="geometry" />
        </mxCell>
        <mxCell id="QI-KwDmmeTw7_n04OuO5-26" style="edgeStyle=none;shape=connector;rounded=0;orthogonalLoop=1;jettySize=auto;html=1;entryX=0;entryY=0;entryDx=55;entryDy=14;entryPerimeter=0;labelBackgroundColor=default;strokeColor=#0A1F32;strokeWidth=2;align=center;verticalAlign=middle;fontFamily=Helvetica;fontSize=11;fontColor=default;endArrow=classic;dashed=1;" edge="1" parent="1" source="QI-KwDmmeTw7_n04OuO5-17" target="QI-KwDmmeTw7_n04OuO5-23">
          <mxGeometry relative="1" as="geometry" />
        </mxCell>
        <mxCell id="QI-KwDmmeTw7_n04OuO5-30" value="&lt;font color=&quot;#0a1f32&quot;&gt;&lt;span style=&quot;font-size: 14px;&quot;&gt;&lt;b&gt;Мониторит конкретный регион на наличие ЧС (Страна, город, район)&lt;/b&gt;&lt;/span&gt;&lt;/font&gt;" style="ellipse;whiteSpace=wrap;html=1;fillColor=#D2D2D2;strokeColor=#0A1F32;strokeWidth=2;" vertex="1" parent="1">
          <mxGeometry x="-190" y="520" width="257" height="100" as="geometry" />
        </mxCell>
        <mxCell id="QI-KwDmmeTw7_n04OuO5-31" value="&lt;font color=&quot;#0a1f32&quot;&gt;&lt;span style=&quot;font-size: 15px;&quot;&gt;&lt;b&gt;Сообщество&lt;/b&gt;&lt;/span&gt;&lt;/font&gt;" style="shape=umlActor;verticalLabelPosition=bottom;verticalAlign=top;html=1;fillColor=#344756;strokeColor=#344756;strokeWidth=3;" vertex="1" parent="1">
          <mxGeometry x="75" y="604" width="70" height="150" as="geometry" />
        </mxCell>
        <mxCell id="QI-KwDmmeTw7_n04OuO5-32" style="edgeStyle=none;shape=connector;rounded=0;orthogonalLoop=1;jettySize=auto;html=1;entryX=0.681;entryY=0.95;entryDx=0;entryDy=0;labelBackgroundColor=default;strokeColor=#0A1F32;strokeWidth=2;align=center;verticalAlign=middle;fontFamily=Helvetica;fontSize=11;fontColor=default;endArrow=classic;entryPerimeter=0;" edge="1" target="QI-KwDmmeTw7_n04OuO5-30" parent="1">
          <mxGeometry relative="1" as="geometry">
            <mxPoint x="90" y="674" as="sourcePoint" />
          </mxGeometry>
        </mxCell>
        <mxCell id="QI-KwDmmeTw7_n04OuO5-33" style="edgeStyle=none;shape=connector;rounded=0;orthogonalLoop=1;jettySize=auto;html=1;entryX=1;entryY=0.5;entryDx=0;entryDy=0;labelBackgroundColor=default;strokeColor=#0A1F32;strokeWidth=2;align=center;verticalAlign=middle;fontFamily=Helvetica;fontSize=11;fontColor=default;endArrow=classic;" edge="1" target="QI-KwDmmeTw7_n04OuO5-34" parent="1">
          <mxGeometry relative="1" as="geometry">
            <mxPoint x="90" y="694" as="sourcePoint" />
          </mxGeometry>
        </mxCell>
        <mxCell id="QI-KwDmmeTw7_n04OuO5-34" value="&lt;font color=&quot;#0a1f32&quot;&gt;&lt;span style=&quot;font-size: 14px;&quot;&gt;&lt;b&gt;Мониторит конкретный тип ЧС, или набор типов.&lt;/b&gt;&lt;/span&gt;&lt;/font&gt;" style="ellipse;whiteSpace=wrap;html=1;fillColor=#D2D2D2;strokeColor=#0A1F32;strokeWidth=2;" vertex="1" parent="1">
          <mxGeometry x="-350" y="640" width="220" height="100" as="geometry" />
        </mxCell>
        <mxCell id="QI-KwDmmeTw7_n04OuO5-35" value="&lt;font color=&quot;#0a1f32&quot;&gt;&lt;span style=&quot;font-size: 14px;&quot;&gt;&lt;b&gt;Создаёт группы людей для более удобной и быстрой рассылки&lt;/b&gt;&lt;/span&gt;&lt;/font&gt;" style="ellipse;whiteSpace=wrap;html=1;fillColor=#D2D2D2;strokeColor=#0A1F32;strokeWidth=2;" vertex="1" parent="1">
          <mxGeometry x="-327" y="765" width="220" height="100" as="geometry" />
        </mxCell>
        <mxCell id="QI-KwDmmeTw7_n04OuO5-36" style="edgeStyle=none;shape=connector;rounded=0;orthogonalLoop=1;jettySize=auto;html=1;entryX=1.005;entryY=0.41;entryDx=0;entryDy=0;labelBackgroundColor=default;strokeColor=#0A1F32;strokeWidth=2;align=center;verticalAlign=middle;fontFamily=Helvetica;fontSize=11;fontColor=default;endArrow=classic;entryPerimeter=0;" edge="1" target="QI-KwDmmeTw7_n04OuO5-35" parent="1">
          <mxGeometry relative="1" as="geometry">
            <mxPoint x="80" y="709" as="sourcePoint" />
            <mxPoint x="-100" y="823" as="targetPoint" />
          </mxGeometry>
        </mxCell>
        <mxCell id="QI-KwDmmeTw7_n04OuO5-37" value="&lt;font color=&quot;#0a1f32&quot;&gt;&lt;span style=&quot;font-size: 14px;&quot;&gt;&lt;b&gt;Делает рассылку повторно используя старый шаблон&lt;/b&gt;&lt;/span&gt;&lt;/font&gt;" style="ellipse;whiteSpace=wrap;html=1;fillColor=#D2D2D2;strokeColor=#0A1F32;strokeWidth=2;" vertex="1" parent="1">
          <mxGeometry x="222" y="785" width="180" height="80" as="geometry" />
        </mxCell>
        <mxCell id="QI-KwDmmeTw7_n04OuO5-38" style="rounded=0;orthogonalLoop=1;jettySize=auto;html=1;entryX=0;entryY=0;entryDx=0;entryDy=0;strokeWidth=2;strokeColor=#0A1F32;" edge="1" target="QI-KwDmmeTw7_n04OuO5-37" parent="1">
          <mxGeometry relative="1" as="geometry">
            <mxPoint x="130" y="704" as="sourcePoint" />
          </mxGeometry>
        </mxCell>
        <mxCell id="QI-KwDmmeTw7_n04OuO5-40" value="" style="endArrow=open;endFill=1;endSize=12;html=1;rounded=0;entryX=0;entryY=0.5;entryDx=0;entryDy=0;strokeWidth=2;strokeColor=#0A1F32;" edge="1" target="QI-KwDmmeTw7_n04OuO5-43" parent="1">
          <mxGeometry width="160" relative="1" as="geometry">
            <mxPoint x="120" y="684" as="sourcePoint" />
            <mxPoint x="229.99999999999682" y="748.9999999999999" as="targetPoint" />
          </mxGeometry>
        </mxCell>
        <mxCell id="QI-KwDmmeTw7_n04OuO5-41" value="" style="endArrow=open;endFill=1;endSize=12;html=1;rounded=0;entryX=0;entryY=0.5;entryDx=0;entryDy=0;strokeWidth=2;strokeColor=#0A1F32;" edge="1" target="QI-KwDmmeTw7_n04OuO5-42" parent="1">
          <mxGeometry width="160" relative="1" as="geometry">
            <mxPoint x="120" y="674" as="sourcePoint" />
            <mxPoint x="80" y="784" as="targetPoint" />
          </mxGeometry>
        </mxCell>
        <mxCell id="QI-KwDmmeTw7_n04OuO5-42" value="&lt;font size=&quot;1&quot; color=&quot;#0a1f32&quot;&gt;&lt;b style=&quot;font-size: 14px;&quot;&gt;Создаёт шаблон уведомления для рассылки&lt;/b&gt;&lt;/font&gt;" style="ellipse;whiteSpace=wrap;html=1;fillColor=#D2D2D2;strokeColor=#0A1F32;strokeWidth=2;" vertex="1" parent="1">
          <mxGeometry x="220" y="590" width="170" height="70" as="geometry" />
        </mxCell>
        <mxCell id="QI-KwDmmeTw7_n04OuO5-43" value="&lt;font size=&quot;1&quot; color=&quot;#0a1f32&quot;&gt;&lt;b style=&quot;font-size: 14px;&quot;&gt;Редактирует созданный шаблон&lt;/b&gt;&lt;/font&gt;" style="ellipse;whiteSpace=wrap;html=1;fillColor=#D2D2D2;strokeColor=#0A1F32;strokeWidth=2;" vertex="1" parent="1">
          <mxGeometry x="235" y="682" width="160" height="70" as="geometry" />
        </mxCell>
        <mxCell id="QI-KwDmmeTw7_n04OuO5-46" value="&lt;font style=&quot;font-size: 13px;&quot; color=&quot;#344756&quot;&gt;В случае сообщества так же есть два варианта рассылки, так же стоит заметить, что сообщество делает рассылку на всех своих подписчиков.&lt;/font&gt;" style="shape=note;size=20;whiteSpace=wrap;html=1;fillColor=#D2D2D2;strokeColor=#344756;strokeWidth=3;" vertex="1" parent="1">
          <mxGeometry x="220" y="401" width="196" height="150" as="geometry" />
        </mxCell>
        <mxCell id="QI-KwDmmeTw7_n04OuO5-48" style="edgeStyle=none;shape=connector;rounded=0;orthogonalLoop=1;jettySize=auto;html=1;entryX=0.5;entryY=1;entryDx=0;entryDy=0;entryPerimeter=0;labelBackgroundColor=default;strokeColor=#0A1F32;strokeWidth=2;align=center;verticalAlign=middle;fontFamily=Helvetica;fontSize=11;fontColor=default;endArrow=classic;dashed=1;" edge="1" parent="1" source="QI-KwDmmeTw7_n04OuO5-42" target="QI-KwDmmeTw7_n04OuO5-46">
          <mxGeometry relative="1" as="geometry" />
        </mxCell>
      </root>
    </mxGraphModel>
  </diagram>
</mxfile>
